<?xml version="1.0" standalone="no"?>
<!DOCTYPE svg PUBLIC "-//W3C//DTD SVG 20010904//EN"
 "http://www.w3.org/TR/2001/REC-SVG-20010904/DTD/svg10.dtd">
<svg version="1.0" xmlns="http://www.w3.org/2000/svg"
 width="758.000000pt" height="654.000000pt" viewBox="0 0 758.000000 654.000000"
 preserveAspectRatio="xMidYMid meet">
<metadata>
Created by potrace 1.12, written by Peter Selinger 2001-2015
</metadata>
<g transform="translate(0.000000,654.000000) scale(0.100000,-0.100000)"
fill="#000000" stroke="none">
<path d="M4120 4491 c-41 -13 -70 -34 -90 -67 -20 -31 -21 -31 -126 -38 -58
-4 -159 -16 -225 -27 -112 -19 -307 -63 -315 -72 -2 -2 -7 -32 -11 -66 -6 -59
-5 -63 13 -57 113 35 395 96 441 96 25 -1 21 -4 -30 -32 -50 -27 -56 -33 -39
-39 14 -5 48 6 113 38 51 25 109 48 129 50 31 4 39 1 54 -21 54 -83 174 -89
245 -12 23 24 29 25 90 21 58 -5 78 -1 161 29 52 19 88 36 80 39 -25 9 -181
36 -244 43 -51 6 -56 9 -35 16 28 11 287 28 307 20 10 -3 13 3 10 24 l-3 29
-85 1 c-47 1 -127 -7 -178 -16 l-94 -17 -25 23 c-14 13 -42 28 -62 34 -41 11
-46 11 -81 1z"/>
<path d="M5010 4308 c3 -3 32 -28 66 -54 33 -27 74 -65 91 -84 41 -48 93 -121
93 -131 0 -5 -42 19 -92 52 -106 70 -194 116 -304 160 l-77 30 -89 -27 c-101
-31 -101 -32 25 -70 177 -53 354 -139 496 -241 52 -38 103 -79 112 -93 37 -51
62 -341 45 -510 -12 -107 -20 -155 -42 -255 -37 -165 -37 -157 -14 -185 l20
-25 29 33 c16 19 31 46 34 60 54 278 63 339 66 442 2 103 -11 265 -25 313 -10
34 12 16 66 -54 77 -99 123 -178 174 -299 49 -115 81 -230 92 -327 4 -44 15
-74 36 -105 l30 -43 -7 80 c-26 312 -158 616 -375 860 -36 40 -80 106 -105
155 -77 153 -215 310 -272 310 -15 0 -39 3 -53 7 -14 3 -23 4 -20 1z"/>
<path d="M3093 4190 c-215 -94 -360 -177 -533 -305 -68 -51 -92 -76 -120 -125
-25 -45 -38 -59 -50 -54 -23 11 -73 10 -77 -1 -1 -6 31 -18 73 -27 l75 -17 72
58 c189 153 441 301 638 376 l47 17 7 65 c4 35 5 66 3 67 -1 2 -63 -23 -135
-54z"/>
<path d="M2183 3533 c-202 -242 -328 -497 -390 -792 -24 -111 -27 -149 -27
-319 -1 -161 1 -194 14 -202 35 -22 38 -13 43 178 6 197 19 277 71 438 37 111
134 304 212 421 42 62 77 129 96 183 17 47 31 86 33 88 1 2 19 -7 39 -19 20
-12 38 -20 40 -18 2 2 10 18 18 35 l15 32 -41 6 c-22 4 -50 9 -62 12 -16 4
-30 -6 -61 -43z"/>
<path d="M2725 3260 c-30 -43 -54 -69 -62 -66 -21 8 -61 -11 -67 -32 -4 -11
-2 -30 4 -43 10 -21 4 -36 -46 -119 -55 -91 -194 -361 -194 -376 0 -19 23 19
70 116 28 58 83 160 123 228 56 96 75 122 92 122 33 0 59 34 52 69 -5 24 3 42
44 100 27 39 46 71 41 71 -5 0 -31 -32 -57 -70z"/>
<path d="M5793 2633 c-15 -12 -29 -51 -48 -127 -15 -60 -42 -149 -61 -198 -34
-90 -42 -132 -25 -142 18 -12 113 238 146 386 20 91 18 107 -12 81z"/>
<path d="M5102 2362 c-50 -16 -55 -20 -92 -90 -122 -225 -388 -570 -599 -777
l-62 -60 -77 -5 -77 -5 3 -35 c1 -19 9 -40 18 -46 12 -10 9 -17 -26 -44 -37
-29 -42 -31 -75 -20 -47 15 -86 5 -121 -31 -23 -24 -29 -40 -29 -73 l0 -44
-92 -53 c-140 -81 -129 -70 -113 -118 7 -22 18 -41 24 -41 54 0 381 68 372 77
-2 3 -67 -7 -143 -21 -190 -37 -199 -38 -188 -27 6 6 48 33 95 62 77 47 91 52
147 53 53 1 67 5 88 26 14 14 29 44 33 66 6 36 18 50 99 117 76 64 99 77 127
77 37 0 56 20 56 59 0 11 32 55 73 98 190 206 280 316 411 511 134 198 230
364 208 361 -4 -1 -31 -8 -60 -17z"/>
<path d="M1896 1828 c-6 -37 -2 -50 40 -122 60 -105 143 -218 155 -210 23 14
4 62 -60 160 -38 57 -80 129 -92 159 -12 30 -26 55 -30 55 -3 0 -9 -19 -13
-42z"/>
<path d="M5094 1487 c-12 -6 -63 -44 -115 -83 -52 -39 -145 -101 -207 -139
-105 -63 -114 -66 -142 -55 -40 17 -70 5 -77 -32 -7 -35 -42 -53 -205 -109
-100 -35 -104 -36 -96 -44 6 -6 84 20 207 70 81 33 95 36 120 25 37 -15 67 0
76 37 5 23 26 39 112 88 141 80 386 254 358 254 -5 1 -19 -5 -31 -12z"/>
<path d="M2370 1281 c0 -17 10 -41 23 -55 25 -28 153 -103 242 -142 l60 -26
-30 32 c-16 17 -63 49 -102 71 -40 22 -75 44 -78 50 -4 5 10 9 30 9 40 0 40
-1 5 52 -24 37 -26 38 -87 38 l-63 0 0 -29z"/>
<path d="M2230 1244 c0 -3 18 -41 40 -83 140 -269 403 -421 728 -421 l97 0
-35 24 c-28 18 -57 26 -140 34 -261 26 -442 135 -586 354 -45 68 -71 98 -84
98 -11 0 -20 -3 -20 -6z"/>
<path d="M3601 934 c-18 -8 -40 -14 -49 -14 -8 0 -23 -6 -31 -14 -19 -16 -180
-69 -266 -86 -94 -19 -94 -19 -44 -45 44 -23 47 -23 114 -9 90 19 227 61 292
90 52 22 52 23 42 53 -14 40 -18 42 -58 25z"/>
</g>
</svg>
